<?xml version="1.0" encoding="UTF-8"?>
<svg id="Calque_2" data-name="Calque 2" xmlns="http://www.w3.org/2000/svg" viewBox="0 0 226.4 143.98">
  <defs>
    <style>
      .cls-1 {
        fill: #f1931f;
      }

      .cls-1, .cls-2, .cls-3, .cls-4 {
        stroke-width: 0px;
      }

      .cls-2 {
        fill: #ef6024;
      }

      .cls-3 {
        fill: #022859;
      }

      .cls-4 {
        fill: #035aa7;
      }
    </style>
  </defs>
  <g id="Calque_2-2" data-name="Calque 2">
    <g>
      <g>
        <circle class="cls-1" cx="113.19" cy="23.19" r="14.93"/>
        <path class="cls-1" d="M87.68,0s-9.84,14.41-7.6,38.12c2.32,24.53,12.46,45.87,21.44,59.14,5.25,7.76,11.68,15.24,11.68,15.24,0,0,.9-68.53,79.76-97.49-5.88.56-38.13,6.66-73.72,28.44C89.15,61.86,87.68,0,87.68,0Z"/>
      </g>
      <g>
        <circle class="cls-4" cx="192.96" cy="54.23" r="14.93"/>
        <path class="cls-4" d="M218.47,31.04s9.84,14.41,7.6,38.12c-2.32,24.53-12.46,45.87-21.44,59.14-5.25,7.76-11.68,15.24-11.68,15.24,0,0-.9-68.53-79.76-97.49,5.88.56,38.13,6.66,73.72,28.44,30.08,18.41,31.56-43.45,31.56-43.45h0Z"/>
      </g>
      <g>
        <circle class="cls-2" cx="33.45" cy="54.23" r="14.93"/>
        <path class="cls-2" d="M7.93,31.04S-1.91,45.44.33,69.16c2.32,24.53,12.46,45.87,21.44,59.14,5.25,7.76,11.68,15.24,11.68,15.24,0,0,.9-68.53,79.76-97.49-5.88.56-38.13,6.66-73.72,28.44C9.41,92.9,7.93,31.04,7.93,31.04Z"/>
      </g>
      <g>
        <path class="cls-3" d="M62.74,118.34h4.56v16.46c0,2.88-.84,5.13-2.52,6.75s-4,2.43-6.97,2.43-5.35-.81-7.02-2.43-2.5-3.87-2.5-6.75v-16.46h4.66v15.98c0,4.01,1.61,6.02,4.83,6.02,1.61,0,2.84-.47,3.69-1.41s1.27-2.32,1.27-4.13c0,0,0-16.46,0-16.46Z"/>
        <path class="cls-3" d="M72.19,125.34h4.39v2.48c.57-.93,1.32-1.65,2.26-2.16s2-.76,3.18-.76c1.81,0,3.27.59,4.37,1.77,1.1,1.18,1.65,2.81,1.65,4.9v11.97h-4.49v-11.59c0-1.13-.27-2.01-.8-2.63-.53-.62-1.29-.94-2.26-.94-.86,0-1.63.23-2.29.7-.67.46-1.17,1.07-1.51,1.82v12.65h-4.49v-18.21Z"/>
        <path class="cls-3" d="M92.76,121.88c-.52-.5-.78-1.11-.78-1.84s.26-1.37.78-1.87,1.17-.75,1.94-.75,1.44.25,1.96.75c.51.5.77,1.12.77,1.87s-.26,1.34-.77,1.84c-.51.5-1.16.75-1.96.75s-1.42-.25-1.94-.75ZM92.45,125.34h4.45v18.19h-4.45v-18.19Z"/>
        <path class="cls-3" d="M112.99,131.09l-3.81,12.44h-3.2c-1.02-3.04-2.01-6.07-2.97-9.11s-1.91-6.06-2.84-9.08h4.28c.54,1.97,1.09,3.94,1.65,5.92.56,1.97,1.13,3.94,1.72,5.92l3.47-11.42h3.47l3.5,11.53c.61-1.99,1.21-3.99,1.79-5.98.58-1.99,1.13-3.98,1.65-5.95h4.08c-.91,3.01-1.85,6.04-2.82,9.08-.98,3.04-1.98,6.07-3.03,9.11h-3.16l-3.77-12.44v-.02Z"/>
        <path class="cls-3" d="M128.78,139.27c-.65-1.48-.97-3.19-.97-5.12s.33-3.45.99-4.83c.66-1.38,1.64-2.46,2.94-3.25,1.3-.78,2.93-1.17,4.88-1.17s3.58.39,4.88,1.17,2.28,1.86,2.94,3.25c.66,1.38.99,2.99.99,4.83,0,1.93-.32,3.63-.97,5.12-.65,1.48-1.62,2.64-2.92,3.47s-2.94,1.24-4.91,1.24-3.61-.41-4.91-1.24-2.28-1.98-2.92-3.47h-.02ZM140.83,134.15c0-1.84-.36-3.27-1.07-4.3s-1.76-1.55-3.15-1.55-2.43.52-3.15,1.55c-.71,1.03-1.07,2.46-1.07,4.3,0,1.99.36,3.56,1.07,4.69s1.76,1.7,3.15,1.7,2.43-.57,3.15-1.7c.71-1.13,1.07-2.7,1.07-4.69Z"/>
        <path class="cls-3" d="M149.4,125.34h4.39v3.33c.59-1.27,1.35-2.22,2.29-2.84s1.96-.94,3.04-.94c.48,0,.9.03,1.26.1l-.48,4.49c-.36-.2-.88-.31-1.56-.31-1.02,0-1.93.31-2.74.94-.81.62-1.38,1.43-1.72,2.43v10.98h-4.49v-18.19h.01Z"/>
        <path class="cls-3" d="M163.71,117.69h4.49v15.33c1.16-1.25,2.32-2.53,3.48-3.84,1.17-1.31,2.28-2.6,3.35-3.84h5.2c-1.2,1.36-2.48,2.76-3.82,4.2-1.35,1.44-2.67,2.84-3.96,4.2,1.45,1.61,2.91,3.26,4.39,4.95,1.47,1.69,2.87,3.3,4.18,4.85h-5.51c-1.09-1.36-2.27-2.79-3.54-4.3s-2.53-2.98-3.77-4.4v8.7h-4.49v-25.84h0Z"/>
      </g>
    </g>
  </g>
</svg>